<svg xmlns:xlink="http://www.w3.org/1999/xlink" xmlns="http://www.w3.org/2000/svg" viewBox="0 0 24 24" width="24"  height="24" ><defs><g id="ui-icon-redvod" viewBox="0 0 24 24"><path d="M10.56 2.12 8.63 1.61a3.25 3.25 0 0 0-4 2.31L4.17 5.74A10 10 0 0 1 10.56 2.12Z"></path><path d="M2.08 13.59l-.47 1.78a3.25 3.25 0 0 0 2.31 4l1.85.49A10 10 0 0 1 2.08 13.59Z"></path><path d="M20.08 4.65 18 4.1a9.94 9.94 0 0 1 3.81 6.67l.57-2.14A3.25 3.25 0 0 0 20.08 4.65Z"></path><path d="M13.39 21.86l2 .53a3.25 3.25 0 0 0 4-2.31l.56-2.1A10 10 0 0 1 13.39 21.86Z"></path><path d="M12 2.9A9.1 9.1 0 1 0 21.1 12 9.09 9.09 0 0 0 12 2.9ZM6.84 7.44a2.6 2.6 0 1 1 2.07 3A2.6 2.6 0 0 1 6.84 7.44Zm3.79 7.86a2.6 2.6 0 1 1-2.06-3A2.6 2.6 0 0 1 10.63 15.3Zm.19-3.45a1.16 1.16 0 1 1 .91 1.35A1.15 1.15 0 0 1 10.82 11.85Zm6.34 4.71a2.6 2.6 0 1 1-2.07-3A2.6 2.6 0 0 1 17.16 16.56Zm1.32-6.88a2.6 2.6 0 1 1-2.06-3A2.6 2.6 0 0 1 18.48 9.68Z"></path></g></defs><use xlink:href="#ui-icon-redvod" fill="#959595"></use></svg>