<svg xmlns:xlink="http://www.w3.org/1999/xlink" xmlns="http://www.w3.org/2000/svg" viewBox="0 0 24 24" width="24"  height="24" ><defs><g id="ui-icon-instagram" viewBox="0 0 24 24"><path d="M22.44 7.68A7.69 7.69 0 0 0 22 5.13a5.32 5.32 0 0 0-3.08-3.08 7.59 7.59 0 0 0-2.54-.49C15.22 1.51 14.86 1.5 12 1.5l0 0c-2.84 0-3.2 0-4.31.06a7.87 7.87 0 0 0-2.54.51A5.32 5.32 0 0 0 2.05 5.17a7.69 7.69 0 0 0-.49 2.55C1.51 8.84 1.5 9.19 1.5 12s0 3.2.06 4.32a8 8 0 0 0 .53 2.51A5.32 5.32 0 0 0 5.17 22a7.84 7.84 0 0 0 2.54.49c1.11 0 1.47.06 4.31.06s3.2 0 4.31-.06A7.84 7.84 0 0 0 18.87 22 5.32 5.32 0 0 0 22 18.87a7.69 7.69 0 0 0 .49-2.55c0-1.12.06-1.48.06-4.32S22.5 8.8 22.44 7.68ZM20.5 16.24a5.9 5.9 0 0 1-.36 2 3.49 3.49 0 0 1-2 2 5.38 5.38 0 0 1-1.94.36c-1.1.06-1.43.07-4.23.07s-3.13 0-4.23-.07a5.38 5.38 0 0 1-1.94-.36 3.49 3.49 0 0 1-2-2 5.6 5.6 0 0 1-.36-1.94c-.08-1.11-.08-1.44-.08-4.24s0-3.13.06-4.24a5.63 5.63 0 0 1 .38-1.94 3.48 3.48 0 0 1 2-2 5.85 5.85 0 0 1 1.94-.36c1.1-.08 1.44-.08 4.23-.08s3.13 0 4.23.06a5.85 5.85 0 0 1 1.94.36 3.54 3.54 0 0 1 2 2 5.86 5.86 0 0 1 .36 1.95c.05 1.1.06 1.44.06 4.23S20.56 15.14 20.5 16.24Z"></path><path d="M12 6.64A5.36 5.36 0 1 0 17.34 12 5.35 5.35 0 0 0 12 6.64Zm0 8.83A3.48 3.48 0 1 1 15.46 12 3.47 3.47 0 0 1 12 15.47Z"></path><path d="M17.46 4.86a1.26 1.26 0 1 0 1.26 1.26A1.25 1.25 0 0 0 17.46 4.86Z"></path></g></defs><use xlink:href="#ui-icon-instagram" fill="#959595"></use></svg>