<svg xmlns:xlink="http://www.w3.org/1999/xlink" xmlns="http://www.w3.org/2000/svg" viewBox="0 0 24 24" width="24"  height="24" ><defs><g id="ui-icon-twitter" viewBox="0 0 24 24"><path d="M22.63 5.33a8.51 8.51 0 0 1-2.47.7 4.4 4.4 0 0 0 1.9-2.45 8.53 8.53 0 0 1-2.74 1.08 4.21 4.21 0 0 0-6.07-.2 4.45 4.45 0 0 0-1.36 3.21 4.88 4.88 0 0 0 .11 1A12.1 12.1 0 0 1 3.13 4.09 4.49 4.49 0 0 0 4.45 10 4.21 4.21 0 0 1 2.5 9.42v.05A4.4 4.4 0 0 0 6 13.8 4.24 4.24 0 0 1 4 13.87a4.33 4.33 0 0 0 4 3.07 8.52 8.52 0 0 1-5.33 1.88 8.91 8.91 0 0 1-1-.07 12 12 0 0 0 6.61 2c7.91 0 12.22-6.7 12.23-12.52l.4-.92A8.81 8.81 0 0 0 22.63 5.33Z"></path></g></defs><use xlink:href="#ui-icon-twitter" fill="#959595"></use></svg>